<svg width="25" height="25" viewBox="0 0 25 25" fill="none" xmlns="http://www.w3.org/2000/svg">
<path d="M6.87134 18.9092V21.1592" stroke="#6D737A" stroke-width="1.60606" stroke-linecap="round" stroke-linejoin="round"/>
<path d="M17.3713 18.9092V21.1592" stroke="#6D737A" stroke-width="1.60606" stroke-linecap="round" stroke-linejoin="round"/>
<path d="M5.37134 10.6594V5.78442C5.37134 5.28714 5.56888 4.81023 5.92051 4.4586C6.27214 4.10697 6.74906 3.90942 7.24634 3.90942C7.74362 3.90942 8.22053 4.10697 8.57216 4.4586C8.92379 4.81023 9.12134 5.28714 9.12134 5.78442" stroke="#6D737A" stroke-width="1.60606" stroke-linecap="round" stroke-linejoin="round"/>
<path d="M18.8713 9.90918H12.8713V14.4092H18.8713V9.90918Z" stroke="#6D737A" stroke-width="1.60606" stroke-linecap="round" stroke-linejoin="round"/>
<path d="M18.8713 10.6592H21.8713C22.0703 10.6592 22.261 10.7382 22.4017 10.8788C22.5423 11.0195 22.6213 11.2103 22.6213 11.4092V14.4092C22.6213 15.6027 22.1472 16.7472 21.3033 17.5912C20.4594 18.4351 19.3148 18.9092 18.1213 18.9092H6.12134C4.92786 18.9092 3.78327 18.4351 2.93936 17.5912C2.09544 16.7472 1.62134 15.6027 1.62134 14.4092V11.4092C1.62134 11.2103 1.70036 11.0195 1.84101 10.8788C1.98166 10.7382 2.17243 10.6592 2.37134 10.6592H12.8713" stroke="#6D737A" stroke-width="1.60606" stroke-linecap="round" stroke-linejoin="round"/>
</svg>
