<svg width="25" height="25" viewBox="0 0 25 25" fill="none" xmlns="http://www.w3.org/2000/svg">
<path d="M2.19702 12.1592H23.197" stroke="#6D737A" stroke-width="1.60606" stroke-linecap="round" stroke-linejoin="round"/>
<path d="M21.697 18.1592V20.4092C21.697 20.6081 21.618 20.7989 21.4774 20.9395C21.3367 21.0802 21.1459 21.1592 20.947 21.1592H18.697C18.4981 21.1592 18.3073 21.0802 18.1667 20.9395C18.026 20.7989 17.947 20.6081 17.947 20.4092V18.1592" stroke="#6D737A" stroke-width="1.60606" stroke-linecap="round" stroke-linejoin="round"/>
<path d="M7.44727 18.1592V20.4092C7.44727 20.6081 7.36825 20.7989 7.2276 20.9395C7.08694 21.0802 6.89618 21.1592 6.69727 21.1592H4.44727C4.24835 21.1592 4.05759 21.0802 3.91694 20.9395C3.77628 20.7989 3.69727 20.6081 3.69727 20.4092V18.1592" stroke="#6D737A" stroke-width="1.60606" stroke-linecap="round" stroke-linejoin="round"/>
<path d="M6.69702 15.1594H8.19702" stroke="#6D737A" stroke-width="1.60606" stroke-linecap="round" stroke-linejoin="round"/>
<path d="M17.197 15.1594H18.697" stroke="#6D737A" stroke-width="1.60606" stroke-linecap="round" stroke-linejoin="round"/>
<path d="M21.6973 12.1592L18.8941 5.85918C18.836 5.7259 18.7403 5.6124 18.6188 5.53251C18.4973 5.45261 18.3552 5.40976 18.2098 5.40918H7.18477C7.03935 5.40976 6.89723 5.45261 6.77572 5.53251C6.65422 5.6124 6.55856 5.7259 6.50039 5.85918L3.69727 12.1592V18.1592H21.6973V12.1592Z" stroke="#6D737A" stroke-width="1.60606" stroke-linecap="round" stroke-linejoin="round"/>
</svg>
