<svg width="23" height="23" viewBox="0 0 23 23" fill="none" xmlns="http://www.w3.org/2000/svg">
<path d="M21.6329 21.633H20.8573C20.0344 21.633 19.2453 21.3061 18.6635 20.7243C18.0817 20.1425 17.7548 19.3533 17.7548 18.5305C17.7548 19.3533 17.4279 20.1425 16.8461 20.7243C16.2643 21.3061 15.4751 21.633 14.6523 21.633C13.8295 21.633 13.0404 21.3061 12.4585 20.7243C11.8767 20.1425 11.5498 19.3533 11.5498 18.5305C11.5498 19.3533 11.223 20.1425 10.6411 20.7243C10.0593 21.3061 9.27019 21.633 8.44736 21.633C7.62454 21.633 6.83541 21.3061 6.25358 20.7243C5.67176 20.1425 5.34489 19.3533 5.34489 18.5305C5.34489 19.3533 5.01802 20.1425 4.4362 20.7243C3.85437 21.3061 3.06524 21.633 2.24242 21.633H1.4668" stroke="#020202" stroke-width="2.475" stroke-linecap="round" stroke-linejoin="round"/>
<path d="M4.56927 4.56939C4.56927 3.74657 4.89614 2.95744 5.47797 2.37561C6.05979 1.79379 6.84892 1.46692 7.67175 1.46692C8.49458 1.46692 9.2837 1.79379 9.86553 2.37561C10.4474 2.95744 10.7742 3.74657 10.7742 4.56939V14.2671" stroke="#020202" stroke-width="2.475" stroke-linecap="round" stroke-linejoin="round"/>
<path d="M15.4279 1.46692C16.2508 1.46692 17.0399 1.79379 17.6217 2.37561C18.2036 2.95744 18.5304 3.74657 18.5304 4.56939V14.226" stroke="#020202" stroke-width="2.475" stroke-linecap="round" stroke-linejoin="round"/>
<path d="M10.7742 7.67188H18.5304" stroke="#020202" stroke-width="2.475" stroke-linecap="round" stroke-linejoin="round"/>
<path d="M10.7742 12.3256H18.5304" stroke="#020202" stroke-width="2.475" stroke-linecap="round" stroke-linejoin="round"/>
</svg>
