<svg width="24" height="24" viewBox="0 0 24 24" fill="none" xmlns="http://www.w3.org/2000/svg">
<path d="M4.98729 21.1377C7.0917 21.4152 9.28934 21.7675 11.5499 21.7675C13.8104 21.7675 16.008 21.4152 18.1125 21.1378C18.9491 21.0274 19.5858 20.3191 19.5858 19.4753V3.62467C19.5858 2.78079 18.9491 2.0725 18.1125 1.96219C16.008 1.68471 13.8104 1.33246 11.5499 1.33246C9.28934 1.33246 7.0917 1.68471 4.98729 1.96219C4.15065 2.0725 3.51392 2.78079 3.51392 3.62467V19.4753C3.51392 20.3191 4.15065 21.0274 4.98729 21.1377Z" fill="white" stroke="#020202" stroke-width="2.475" stroke-linejoin="round"/>
<path d="M5.92044 21.2634C5.60757 21.2208 5.29662 21.1785 4.98768 21.1377C4.15104 21.0274 3.51431 20.3191 3.51431 19.4753V10.2332H19.5862V19.4753C19.5862 20.3191 18.9495 21.0274 18.1129 21.1377C17.8039 21.1785 17.493 21.2208 17.1801 21.2634C15.3618 21.5111 13.4789 21.7675 11.5503 21.7675C9.6216 21.7675 7.73871 21.511 5.92044 21.2634Z" fill="white" stroke="#020202" stroke-width="2.475" stroke-linecap="round" stroke-linejoin="round"/>
<path d="M8.18312 4.92777C8.28058 5.71398 8.94448 6.32573 9.73395 6.39185C10.3223 6.44112 10.9264 6.48351 11.5424 6.48351C12.1583 6.48351 12.7625 6.44112 13.3508 6.39185C14.1403 6.32573 14.8042 5.71398 14.9016 4.92777C14.943 4.59364 14.9729 4.2533 14.9729 3.90798C14.9729 3.56267 14.943 3.22233 14.9016 2.8882C14.8042 2.10198 14.1403 1.49023 13.3508 1.42412C12.7625 1.37485 12.1583 1.33246 11.5424 1.33246C10.9264 1.33246 10.3223 1.37485 9.73395 1.42412C8.94448 1.49023 8.28058 2.10198 8.18312 2.8882C8.1417 3.22233 8.11182 3.56267 8.11182 3.90798C8.11182 4.2533 8.1417 4.59364 8.18312 4.92777Z" fill="white" stroke="#020202" stroke-width="2.475" stroke-linejoin="round"/>
</svg>
